<svg width="32" height="32" viewBox="0 0 32 32" fill="none" xmlns="http://www.w3.org/2000/svg">
<rect width="32" height="32" rx="7" fill="white"/>
<g clip-path="url(#clip0_264_96)">
<path d="M9.04809 19.1236C9.04809 20.5141 7.92431 21.6379 6.53381 21.6379C5.14331 21.6379 4.01953 20.5141 4.01953 19.1236C4.01953 17.7332 5.14331 16.6094 6.53391 16.6094H9.048V19.1237L9.04809 19.1236ZM10.3053 19.1236C10.3053 17.7332 11.4291 16.6094 12.8196 16.6094C14.2101 16.6094 15.3338 17.7332 15.3338 19.1237V25.4093C15.3338 26.7998 14.2101 27.9237 12.8195 27.9237C11.4292 27.9237 10.3053 26.7998 10.3053 25.4093V19.1236Z" fill="#E01E5A"/>
<path d="M12.8191 9.02856C11.4286 9.02856 10.3047 7.90478 10.3047 6.51428C10.3047 5.12378 11.4287 4 12.8191 4C14.2095 4 15.3333 5.12378 15.3333 6.51428V9.02866H12.819L12.8191 9.02856ZM12.8191 10.3048C14.2096 10.3048 15.3333 11.4286 15.3333 12.8191C15.3333 14.2096 14.2096 15.3333 12.819 15.3333H6.51437C5.12378 15.3333 4 14.2096 4 12.819C4 11.4287 5.12378 10.3048 6.51428 10.3048H12.8191Z" fill="#36C5F0"/>
<path d="M22.8951 12.8191C22.8951 11.4286 24.0189 10.3047 25.4093 10.3047C26.7998 10.3047 27.9237 11.4286 27.9237 12.8191C27.9237 14.2096 26.7998 15.3333 25.4093 15.3333H22.8951V12.8191ZM21.6379 12.8191C21.6379 14.2096 20.5141 15.3333 19.1236 15.3333C17.7332 15.3333 16.6094 14.2096 16.6094 12.819V6.51437C16.6094 5.12378 17.7332 4 19.1236 4C20.514 4 21.6378 5.12378 21.6378 6.51428V12.819L21.6379 12.8191Z" fill="#2EB67D"/>
<path d="M19.1236 22.8951C20.5141 22.8951 21.6379 24.0189 21.6379 25.4093C21.6379 26.7998 20.5141 27.9237 19.1236 27.9237C17.7332 27.9237 16.6094 26.7998 16.6094 25.4093V22.8951H19.1236ZM19.1236 21.6379C17.7332 21.6379 16.6094 20.5141 16.6094 19.1236C16.6094 17.7332 17.7332 16.6094 19.1237 16.6094H25.4283C26.8188 16.6094 27.9427 17.7332 27.9427 19.1237C27.9427 20.5141 26.8188 21.6379 25.4283 21.6379H19.1236Z" fill="#ECB22E"/>
</g>
<defs>
<clipPath id="clip0_264_96">
<rect width="24" height="24" fill="white" transform="translate(4 4)"/>
</clipPath>
</defs>
</svg>
