<svg width="20" height="28" viewBox="0 0 20 28" fill="none" xmlns="http://www.w3.org/2000/svg">
<path opacity="0.2" d="M10 1V12H1V8C1 6.14348 1.7375 4.36301 3.05025 3.05025C4.36301 1.7375 6.14348 1 8 1H10Z" fill="#333333"/>
<path d="M12 0H8C5.87898 0.00231607 3.84549 0.845914 2.3457 2.3457C0.845915 3.84549 0.00231607 5.87898 0 8V20C0.00231607 22.121 0.845915 24.1545 2.3457 25.6543C3.84549 27.1541 5.87898 27.9977 8 28H12C14.121 27.9977 16.1545 27.1541 17.6543 25.6543C19.1541 24.1545 19.9977 22.121 20 20V8C19.9977 5.87898 19.1541 3.84549 17.6543 2.3457C16.1545 0.845914 14.121 0.00231607 12 0ZM18 8V11H11V2H12C13.5908 2.00165 15.116 2.63433 16.2408 3.75919C17.3657 4.88405 17.9983 6.40921 18 8ZM8 2H9V11H2V8C2.00165 6.40921 2.63433 4.88405 3.75919 3.75919C4.88405 2.63433 6.40921 2.00165 8 2ZM12 26H8C6.40921 25.9983 4.88405 25.3657 3.75919 24.2408C2.63433 23.116 2.00165 21.5908 2 20V13H18V20C17.9983 21.5908 17.3657 23.116 16.2408 24.2408C15.116 25.3657 13.5908 25.9983 12 26Z" fill="#333333"/>
</svg>
