<svg width="32" height="32" viewBox="0 0 32 32" fill="none" xmlns="http://www.w3.org/2000/svg">
<g clip-path="url(#clip0_264_44)">
<path d="M24.5 0H7.5C3.35786 0 0 3.35786 0 7.5V24.5C0 28.6421 3.35786 32 7.5 32H24.5C28.6421 32 32 28.6421 32 24.5V7.5C32 3.35786 28.6421 0 24.5 0Z" fill="#CD6799"/>
<mask id="mask0_264_44" style="mask-type:luminance" maskUnits="userSpaceOnUse" x="3" y="6" width="26" height="20">
<path d="M3.5 6.625H28.5V25.3636H3.5V6.625Z" fill="white"/>
</mask>
<g mask="url(#mask0_264_44)">
<path d="M25.0126 17.3956C24.1408 17.4001 23.3833 17.6101 22.749 17.9204C22.5162 17.4595 22.2835 17.0487 22.2423 16.7475C22.1967 16.3961 22.142 16.1816 22.1967 15.7618C22.2515 15.3419 22.498 14.7441 22.4933 14.6985C22.4888 14.6527 22.4386 14.4384 21.9366 14.4338C21.4346 14.4293 21.0011 14.5296 20.9508 14.662C20.9006 14.7942 20.8048 15.0955 20.741 15.4059C20.6542 15.8623 19.7368 17.4915 19.2121 18.3449C19.0432 18.0118 18.8972 17.7196 18.8652 17.4869C18.8196 17.1355 18.7648 16.921 18.8196 16.5011C18.8743 16.0813 19.1208 15.4834 19.1162 15.4377C19.1117 15.3921 19.0614 15.1776 18.5594 15.1731C18.0574 15.1685 17.6238 15.2689 17.5737 15.4012C17.5234 15.5336 17.4687 15.844 17.3637 16.1451C17.2588 16.4464 16.0403 19.1664 15.7208 19.8691C15.5917 20.1535 15.4563 20.435 15.3147 20.7134C15.3147 20.7134 15.3101 20.7271 15.2964 20.7499C15.2519 20.8372 15.2062 20.9239 15.1594 21.01V21.0146C15.0911 21.1379 15.018 21.2519 14.9815 21.2519C14.9541 21.2519 14.9039 20.9234 14.9906 20.4761C15.1732 19.5314 15.6067 18.0619 15.6022 18.0117C15.6022 17.9844 15.6843 17.7287 15.3192 17.5964C14.9632 17.464 14.8354 17.6831 14.8034 17.6831C14.7716 17.6831 14.7487 17.7607 14.7487 17.7607C14.7487 17.7607 15.1458 16.1086 13.9912 16.1086C13.2701 16.1086 12.2752 16.8981 11.7824 17.6101C11.2221 17.915 10.6622 18.2208 10.1028 18.5274C9.8337 18.678 9.55532 18.8286 9.29507 18.9701C9.27682 18.9519 9.25857 18.929 9.24032 18.9107C7.84382 17.4184 5.26083 16.3643 5.37033 14.3608C5.41145 13.6305 5.66245 11.7138 10.3311 9.38625C14.1737 7.49238 17.2315 8.01713 17.7608 9.18088C18.5183 10.8421 16.1224 13.9271 12.1521 14.3744C10.6368 14.5432 9.84282 13.9591 9.64207 13.7401C9.43207 13.5119 9.40007 13.4983 9.32245 13.5439C9.1947 13.6123 9.27682 13.8176 9.32245 13.9363C9.4412 14.2466 9.92945 14.7942 10.7555 15.0635C11.4857 15.3009 13.261 15.4333 15.4104 14.6026C17.8156 13.6716 19.6958 11.0839 19.1436 8.91625C18.5914 6.7165 14.9404 5.99088 11.4857 7.2185C9.43195 7.94875 7.20495 9.09875 5.60308 10.5956C3.69995 12.3756 3.39883 13.9226 3.52208 14.5706C3.9647 16.8708 7.13645 18.3676 8.4052 19.4766C8.34133 19.5131 8.28195 19.5451 8.23182 19.5725C7.59745 19.8874 5.1787 21.1515 4.5762 22.4888C3.8917 24.0039 4.68583 25.09 5.21058 25.236C6.83983 25.6879 8.5147 24.8755 9.41383 23.5338C10.3128 22.192 10.2033 20.4488 9.78795 19.6501C9.7835 19.64 9.77733 19.6307 9.7697 19.6227C9.93408 19.5269 10.1028 19.4265 10.2672 19.3306C10.5692 19.1522 10.875 18.9802 11.1845 18.8149C11.0293 19.2394 10.9152 19.7459 10.8604 20.4761C10.7921 21.3341 11.1435 22.4476 11.6043 22.8857C11.8097 23.0774 12.0516 23.082 12.2068 23.082C12.7453 23.082 12.9872 22.6348 13.2564 22.1054C13.5849 21.4573 13.8817 20.7043 13.8817 20.7043C13.8817 20.7043 13.512 22.7397 14.516 22.7397C14.8811 22.7397 15.2507 22.2651 15.4151 22.0233V22.0278C15.4151 22.0278 15.4242 22.0141 15.4424 21.9821C15.4789 21.9227 15.5017 21.8862 15.5017 21.8862V21.8771C15.6478 21.6216 15.9763 21.042 16.4647 20.079C17.0944 18.8378 17.7014 17.2861 17.7014 17.2861C17.7014 17.2861 17.7562 17.6649 17.9433 18.2946C18.0528 18.6644 18.2811 19.0705 18.4636 19.463C18.3176 19.6684 18.2263 19.7824 18.2263 19.7824L18.2308 19.787C18.1122 19.9421 17.9844 20.111 17.8429 20.2752C17.3454 20.8686 16.7522 21.5486 16.6701 21.7449C16.5742 21.9776 16.5971 22.1464 16.7796 22.2834C16.9119 22.3837 17.1492 22.3974 17.3911 22.3837C17.8383 22.3517 18.1533 22.2422 18.3084 22.1737C18.5503 22.0871 18.8333 21.9547 19.0979 21.7585C19.5863 21.398 19.883 20.8822 19.8556 20.2022C19.8418 19.828 19.7186 19.4539 19.5681 19.1024C19.6137 19.0385 19.6547 18.9746 19.7003 18.9107C20.4717 17.7835 21.0695 16.5467 21.0695 16.5467C21.0695 16.5467 21.1242 16.9255 21.3113 17.5554C21.4026 17.8747 21.5897 18.2216 21.7541 18.5594C21.0285 19.1481 20.5812 19.8326 20.4215 20.2799C20.134 21.1105 20.3576 21.4846 20.7819 21.5714C20.9737 21.6125 21.2475 21.5212 21.4483 21.4345C21.7038 21.3524 22.0051 21.2109 22.2926 21.0009C22.7808 20.6404 23.251 20.1384 23.2236 19.4584C23.2098 19.1481 23.1277 18.8423 23.0136 18.5456C23.6297 18.2901 24.4238 18.1486 25.437 18.2673C27.6093 18.5229 28.0383 19.8782 27.9561 20.4487C27.874 21.0191 27.4176 21.3295 27.267 21.4254C27.1165 21.5212 27.0662 21.5531 27.08 21.6216C27.0982 21.722 27.1712 21.7174 27.299 21.6991C27.477 21.6673 28.4398 21.2383 28.481 20.1886C28.5495 18.8469 27.2716 17.3819 25.0126 17.3956ZM8.25457 23.0455C7.53357 23.8304 6.52957 24.1271 6.09595 23.8761C5.63045 23.6068 5.81295 22.4476 6.69845 21.617C7.23683 21.1105 7.93057 20.6404 8.39145 20.3529C8.49645 20.289 8.65158 20.1978 8.8387 20.0836C8.8707 20.0654 8.88895 20.0562 8.88895 20.0562L8.99845 19.9877C9.32245 21.1744 9.01207 22.2195 8.25457 23.0455ZM13.5028 19.4766C13.2518 20.0883 12.7271 21.6535 12.4076 21.5669C12.1338 21.4938 11.965 20.3072 12.3528 19.1344C12.5491 18.5456 12.9643 17.8429 13.2062 17.569C13.5987 17.1309 14.0322 16.9849 14.1372 17.1629C14.2696 17.3956 13.6581 19.0933 13.5028 19.4766ZM17.8338 21.5486C17.7288 21.6034 17.6285 21.6399 17.5828 21.6125C17.5508 21.5942 17.6284 21.5212 17.6284 21.5212C17.6284 21.5212 18.1716 20.937 18.3861 20.6724C18.5092 20.5171 18.6553 20.3346 18.8105 20.1292V20.1886C18.8105 20.8869 18.1351 21.3569 17.8338 21.5486ZM21.1744 20.7864C21.0968 20.7316 21.1106 20.5491 21.3707 19.9786C21.4711 19.755 21.7085 19.3809 22.1146 19.0203C22.1602 19.1664 22.1922 19.3077 22.1876 19.4401C22.1831 20.321 21.5532 20.6495 21.1744 20.7864Z" fill="white"/>
</g>
</g>
<defs>
<clipPath id="clip0_264_44">
<rect width="32" height="32" fill="white"/>
</clipPath>
</defs>
</svg>
