<svg width="32" height="32" viewBox="0 0 32 32" fill="none" xmlns="http://www.w3.org/2000/svg">
<g clip-path="url(#clip0_264_14)">
<path d="M24.5 0H7.5C3.35786 0 0 3.35786 0 7.5V24.5C0 28.6421 3.35786 32 7.5 32H24.5C28.6421 32 32 28.6421 32 24.5V7.5C32 3.35786 28.6421 0 24.5 0Z" fill="#F0DB4F"/>
<path d="M8.41419 26.7419L10.8629 25.2599C11.3354 26.0975 11.7652 26.8063 12.7961 26.8063C13.7842 26.8063 14.4072 26.4198 14.4072 24.9163V14.6915H17.4144V24.9588C17.4144 28.0734 15.5887 29.4912 12.9249 29.4912C10.5193 29.4912 9.12294 28.2453 8.41406 26.7417M19.0478 26.4197L21.4963 25.002C22.1409 26.0547 22.9787 26.8279 24.4607 26.8279C25.7068 26.8279 26.5013 26.2049 26.5013 25.3457C26.5013 24.3147 25.6851 23.9494 24.3103 23.3482L23.5587 23.0258C21.3891 22.1023 19.9498 20.9423 19.9498 18.4935C19.9498 16.238 21.6683 14.5195 24.3534 14.5195C26.2652 14.5195 27.6399 15.1855 28.6279 16.9254L26.2866 18.429C25.7709 17.5054 25.2127 17.1403 24.3534 17.1403C23.4727 17.1403 22.9142 17.6988 22.9142 18.429C22.9142 19.3312 23.4727 19.6964 24.7614 20.255L25.5132 20.5772C28.0693 21.6728 29.5086 22.7895 29.5086 25.3027C29.5086 28.0094 27.3821 29.4914 24.5252 29.4914C21.7328 29.4914 19.9284 28.1597 19.0478 26.4197Z" fill="#323330"/>
</g>
<defs>
<clipPath id="clip0_264_14">
<rect width="32" height="32" fill="white"/>
</clipPath>
</defs>
</svg>
