<svg width="32" height="32" viewBox="0 0 32 32" fill="none" xmlns="http://www.w3.org/2000/svg">
<g clip-path="url(#clip0_264_35)">
<path d="M24.5 0H7.5C3.35786 0 0 3.35786 0 7.5V24.5C0 28.6421 3.35786 32 7.5 32H24.5C28.6421 32 32 28.6421 32 24.5V7.5C32 3.35786 28.6421 0 24.5 0Z" fill="url(#paint0_linear_264_35)"/>
<path d="M1.43505 16.135L7.72305 18.683V20.4666L0.279297 17.0177V15.9712L1.43505 16.135ZM7.72305 14.0421L1.44417 16.6264L0.279422 16.7539V15.6982L7.72292 12.2585L7.72305 14.0421ZM30.1705 16.499L23.7005 13.9784V12.2402L31.4718 15.68V16.7447L30.1705 16.499ZM23.7005 18.7194L30.1888 16.1441L31.4718 15.953V17.0086L23.7005 20.4575V18.7194Z" fill="white"/>
<path fill-rule="evenodd" clip-rule="evenodd" d="M22.0098 7.63736C21.9738 8.20811 21.7167 8.80411 21.7883 9.35899C22.2374 10.1532 23.2259 10.2799 24.0414 10.3344C24.6064 10.4354 24.5993 10.0612 24.5614 9.64099L24.5683 7.62549C23.7154 7.62861 22.8623 7.61711 22.0098 7.63736ZM15.2847 9.23361C13.8962 9.46936 12.4887 10.1329 11.3336 10.9316C10.4038 11.6552 12.1317 12.3565 12.7586 12.4737C14.0198 12.4891 15.1384 11.6384 15.9669 10.7554C16.2374 10.3841 16.5753 9.81574 16.2354 9.38536C15.9759 9.16036 15.5986 9.21486 15.2847 9.23361ZM18.2393 11.253C17.0977 11.4705 16.0114 11.941 15.0503 12.5961C14.3457 12.8174 13.7649 13.591 14.6381 13.9786C15.5549 14.7092 16.6176 14.5302 17.4619 14.037C18.2352 13.5774 19.0704 13.0102 19.4282 12.145C19.7661 11.1971 18.8943 11.162 18.2393 11.253ZM21.4779 14.9259C21.2653 15.8139 20.3711 16.2176 19.8953 16.9212C19.5063 17.4345 19.6864 18.0391 20.1293 18.4431C20.3449 18.8902 20.7229 19.1401 21.1283 18.7517C22.1723 18.042 22.4611 16.6595 22.4177 15.4616C22.4948 14.9669 21.9272 15.4141 21.4779 14.9259ZM17.5051 16.5937C16.1187 16.831 14.7321 17.5065 13.5764 18.304C12.6793 19.0266 14.3689 19.7014 15.0009 19.8084C16.2856 19.8102 17.4314 18.9824 18.2437 18.0421C18.5262 17.6687 18.8686 16.9436 18.3092 16.6467C18.0591 16.5407 17.7687 16.5719 17.5051 16.5937Z" fill="#B956A6"/>
<path fill-rule="evenodd" clip-rule="evenodd" d="M11.3334 10.9318C10.2671 11.3584 9.23863 11.8764 8.22288 12.4189C8.03413 13.1208 8.18551 13.9899 8.13663 14.7595C8.13288 17.924 8.13463 21.0886 8.13413 24.2531H10.4866C10.9616 23.8059 11.5566 23.4785 12.0726 23.0724C14.0594 21.6475 16.0455 20.2171 18.0296 18.7963C18.1756 18.8619 18.0821 17.9374 17.7619 18.5795C17.003 19.2936 15.9958 19.881 14.9296 19.8236C14.3246 19.6246 13.3494 19.287 13.3433 18.5456C13.7691 18.0443 12.5575 18.8081 12.226 18.9175C11.1483 19.435 10.096 20.0129 9.01601 20.5208C9.27551 20.242 9.76101 19.9821 10.1053 19.7056C12.5644 17.9404 15.0229 16.1683 17.4879 14.4044C17.962 14.0715 18.42 13.7084 18.9088 13.3973C18.9534 13.5696 19.0371 12.5731 18.6736 13.1866C17.9326 13.9211 16.9331 14.4679 15.879 14.4754C15.2861 14.2954 14.0234 13.865 14.3045 13.0995C14.4416 12.8309 13.031 13.6721 13.6543 13.1978C14.3176 12.713 14.9863 12.2369 15.6548 11.7571C15.9924 11.7318 15.9205 10.4776 15.4618 11.2866C14.6911 11.9638 13.6786 12.5833 12.6173 12.4364C12.021 12.2648 11.3056 11.9324 11.0889 11.3089C11.0171 11.1591 11.4904 10.9258 11.3334 10.9318ZM15.7508 11.7059C15.8579 11.6441 15.6916 11.875 15.7508 11.7059Z" fill="#FCCC44"/>
<path fill-rule="evenodd" clip-rule="evenodd" d="M22.4881 10.0942C22.1553 11.6837 21.7914 13.3473 21.4785 14.9263C22.3775 16.0593 22.4646 14.2106 22.6219 13.6878C22.876 12.5952 23.177 11.7702 23.2089 10.6389C23.2764 10.2528 22.8226 10.0191 22.4881 10.0942ZM23.5195 11.3407C23.5605 11.3713 23.4914 11.5036 23.5195 11.3407ZM22.4708 14.9049C22.514 14.9981 22.514 14.8117 22.4708 14.9049Z" fill="#62777F"/>
<path fill-rule="evenodd" clip-rule="evenodd" d="M23.0775 10.2734C23.358 11.8486 22.4289 13.7624 22.125 15.2476C22.815 14.7399 23.3481 12.4361 23.4844 11.5344C23.5195 11.4312 23.5627 11.1717 23.5721 11.1624C23.6155 10.9435 24.0196 10.5726 24.0417 10.334C24.277 10.168 22.8855 10.1414 23.0775 10.2734ZM22.5054 14.9041C22.462 14.9972 22.462 14.8109 22.5054 14.9041Z" fill="#4E5E67"/>
<path fill-rule="evenodd" clip-rule="evenodd" d="M11.3562 10.9582C10.9672 11.3477 11.1132 11.2526 11.4027 10.9287L11.3562 10.9582ZM15.5637 11.1511C15.1131 11.8282 13.4881 12.3945 13.2835 12.4383C14.261 12.2552 15.1721 11.6471 15.8132 10.9348C15.7114 10.9802 15.6509 11.0868 15.5637 11.1511ZM11.089 11.371C11.3319 11.955 12.215 12.343 12.6441 12.4335C12.0582 12.2447 11.3686 11.91 11.089 11.371ZM15.7152 11.7087C15.5926 11.8535 15.1559 12.07 14.9256 12.2825C14.4317 12.6467 13.9209 12.9852 13.4326 13.3586C13.7435 13.3452 14.6545 12.6647 14.1875 13.3552C14.5832 14.0363 15.4449 14.51 16.2305 14.4667C17.268 14.3038 18.2247 13.7302 18.9125 12.9325C18.0776 13.7586 16.9739 14.5361 15.7525 14.429C15.1614 14.2925 13.5461 13.4581 14.6266 12.8732C15.0076 12.5598 15.6645 12.3957 15.7389 11.845C15.7232 11.7762 15.8514 11.7091 15.7152 11.7087ZM12.7579 12.4741C13.151 12.5255 13.151 12.4228 12.7579 12.4741ZM18.8832 13.4147C17.3234 14.5015 15.7861 15.6307 14.2397 16.737C12.4872 17.9912 10.7422 19.2501 8.99023 20.5033C9.64898 20.2812 10.309 19.8475 10.9634 19.5478C11.8646 19.0711 12.8149 18.6945 13.6581 18.1153C15.3254 17.1338 17.0886 16.1987 18.371 14.6971C18.6509 14.3688 18.9315 13.8405 18.944 13.4851C18.9036 13.4965 18.9342 13.343 18.8832 13.4147ZM13.5757 18.3043C13.2951 18.6215 13.1811 18.8481 13.4724 18.4448C13.4672 18.4916 13.7087 18.1945 13.5757 18.3043ZM17.8452 18.4561C17.106 19.2356 16.0126 19.7978 14.9867 19.8357C16.1727 19.8443 17.2427 19.1403 18.0462 18.3098C17.9935 18.2461 17.8866 18.4583 17.8452 18.4561ZM18.0711 18.7011C15.5875 20.5091 13.0181 22.3845 10.5261 24.186C10.9186 24.3091 11.7735 24.3668 12.1636 23.8642C12.9936 23.2915 13.9267 22.8703 14.7595 22.2898C15.9654 21.5073 17.2565 20.6521 17.9414 19.337C17.974 19.1606 18.2164 18.8433 18.0711 18.7011ZM13.3445 18.8158C13.4597 19.3023 14.9005 19.8607 14.7442 19.7538C14.213 19.5676 13.686 19.2773 13.3445 18.8158Z" fill="#DC9624"/>
</g>
<defs>
<linearGradient id="paint0_linear_264_35" x1="0" y1="32" x2="32" y2="0" gradientUnits="userSpaceOnUse">
<stop stop-color="#DB7093"/>
<stop offset="1" stop-color="#F3B661"/>
</linearGradient>
<clipPath id="clip0_264_35">
<rect width="32" height="32" fill="white"/>
</clipPath>
</defs>
</svg>
