<svg width="32" height="32" viewBox="0 0 32 32" fill="none" xmlns="http://www.w3.org/2000/svg">
<g clip-path="url(#clip0_264_56)">
<path d="M24.5 0H7.5C3.35786 0 0 3.35786 0 7.5V24.5C0 28.6421 3.35786 32 7.5 32H24.5C28.6421 32 32 28.6421 32 24.5V7.5C32 3.35786 28.6421 0 24.5 0Z" fill="#764ABC"/>
<path d="M20.8224 20.6997C21.745 20.6042 22.4449 19.8088 22.413 18.8544C22.3813 17.9001 21.5859 17.1366 20.6315 17.1366H20.5679C19.5816 17.1683 18.8181 17.9954 18.8499 18.9817C18.8818 19.4589 19.0726 19.8724 19.3589 20.1588C18.2773 22.2903 16.623 23.8492 14.1415 25.1536C12.4554 26.0443 10.7056 26.3624 8.95589 26.1398C7.52426 25.9489 6.41089 25.3126 5.71089 24.2628C4.69289 22.7039 4.59751 21.0178 5.45639 19.3317C6.06089 18.1227 7.01526 17.2319 7.61976 16.7866C7.49251 16.3731 7.30164 15.6731 7.20614 15.1641C2.59326 18.5046 3.07039 23.0221 4.47014 25.1536C5.52014 26.7442 7.65151 27.7304 10.0058 27.7304C10.642 27.7304 11.2783 27.6668 11.9145 27.5077C15.9868 26.7124 19.0726 24.2946 20.8224 20.6997Z" fill="white"/>
<path d="M26.421 16.7549C24.0033 13.9234 20.4402 12.3647 16.368 12.3647H15.859C15.5727 11.7919 14.9682 11.4102 14.3002 11.4102H14.2365C13.2503 11.442 12.4868 12.2692 12.5185 13.2554C12.5504 14.2098 13.3457 14.9733 14.3002 14.9733H14.3638C15.0637 14.9415 15.6682 14.4962 15.9227 13.8917H16.4953C18.913 13.8917 21.2037 14.5915 23.2715 15.9595C24.8622 17.0094 26.0075 18.3774 26.6438 20.0317C27.1847 21.3678 27.1528 22.6722 26.5802 23.7857C25.6894 25.4718 24.1942 26.3944 22.2217 26.3944C20.9492 26.3944 19.7403 26.0127 19.1039 25.7263C18.754 26.0444 18.1178 26.5534 17.6724 26.8715C19.0403 27.5078 20.4402 27.8578 21.7763 27.8578C24.8304 27.8578 27.0892 26.1717 27.9482 24.4855C28.8708 22.6404 28.8072 19.459 26.421 16.7549Z" fill="white"/>
<path d="M10.2607 21.2407C10.2926 22.1951 11.0878 22.9586 12.0423 22.9586H12.106C13.0921 22.9268 13.8557 22.0996 13.8238 21.1134C13.7921 20.159 12.9967 19.3955 12.0423 19.3955H11.9786C11.9151 19.3955 11.8196 19.3955 11.7561 19.4274C10.4516 17.264 9.91083 14.9097 10.1017 12.3647C10.229 10.456 10.8652 8.80162 11.9787 7.4335C12.9012 6.2565 14.6828 5.68387 15.8917 5.652C19.264 5.58837 20.6956 9.78775 20.791 11.4739C21.2046 11.5694 21.9045 11.7921 22.3817 11.9511C22 6.7975 18.8186 4.125 15.7645 4.125C12.9012 4.125 10.2607 6.19287 9.21083 9.247C7.74745 13.3191 8.70183 17.2321 10.4833 20.3181C10.3243 20.5407 10.2288 20.8907 10.2607 21.2407Z" fill="white"/>
</g>
<defs>
<clipPath id="clip0_264_56">
<rect width="32" height="32" fill="white"/>
</clipPath>
</defs>
</svg>
